<svg width="32" height="32" viewBox="0 0 32 32" fill="none" xmlns="http://www.w3.org/2000/svg">
<g clip-path="url(#clip0_1749_193)">
<mask id="mask0_1749_193" style="mask-type:luminance" maskUnits="userSpaceOnUse" x="0" y="0" width="32" height="32">
<path d="M32 0H0V32H32V0Z" fill="white"/>
</mask>
<g mask="url(#mask0_1749_193)">
<path d="M16 32C24.8366 32 32 24.8366 32 16C32 7.16345 24.8366 0 16 0C7.16345 0 0 7.16345 0 16C0 24.8366 7.16345 32 16 32Z" fill="url(#paint0_linear_1749_193)"/>
<mask id="mask1_1749_193" style="mask-type:luminance" maskUnits="userSpaceOnUse" x="6" y="7" width="21" height="18">
<path d="M6.25098 7.35352H26.1638V24.6983H6.25098V7.35352Z" fill="white"/>
</mask>
<g mask="url(#mask1_1749_193)">
<path fill-rule="evenodd" clip-rule="evenodd" d="M19.388 15.7444C21.0958 15.7444 22.3022 14.9542 22.3022 13.2463C22.3022 11.4636 21.0211 10.7804 19.3131 10.7804H16.292C15.8755 10.7804 15.5447 11.1219 15.5447 11.5275V14.9862C15.5447 15.4028 15.8862 15.7336 16.292 15.7336H19.388V15.7444ZM11.5308 16.5556C11.915 16.5556 12.2994 16.5556 12.6836 16.5556C13.2387 16.5556 13.2387 17.3989 12.6836 17.3989H9.95067C9.39563 17.3989 9.39563 18.2422 9.95067 18.2422H12.6836C13.2387 18.2422 13.2387 19.0858 12.6836 19.0858H10.2817C9.7265 19.0858 9.7265 19.9291 10.2817 19.9291C10.9009 19.9291 11.5092 19.9291 12.1287 19.9291C12.6836 19.9291 12.6836 20.7724 12.1287 20.7724H10.9435C10.3884 20.7724 10.3884 21.6157 10.9435 21.6157H11.7442C12.342 21.6157 12.31 22.4592 11.7655 22.4592H9.26768C8.71244 22.4592 8.71244 23.3024 9.26768 23.3024H12.4808C13.0361 23.3024 13.0361 24.1457 12.4808 24.1457H11.7442C11.4667 24.1457 11.2746 24.4127 11.3492 24.6689H14.7972C15.2138 24.6689 15.5447 24.3272 15.5447 23.9216V19.897C15.5447 19.4807 15.8862 19.1496 16.292 19.1496H18.1281C18.3843 19.1496 18.6086 19.2671 18.7472 19.4807L22.0032 24.3486C22.142 24.5622 22.3661 24.6795 22.6223 24.6795H25.2379C25.8465 24.6795 26.1986 24.0069 25.857 23.5053L22.964 19.2032C22.7078 18.8295 22.836 18.3276 23.231 18.1142C25.1524 17.1002 26.1561 15.4241 26.1561 13.1075C26.1561 9.2643 23.4872 7.35352 19.6442 7.35352H10.0468C9.4918 7.35352 9.4918 8.19682 10.0468 8.19682H13.0145C13.4736 8.23941 13.495 9.02938 12.9399 9.02938C11.787 9.02938 10.6339 9.02938 9.4918 9.02938C8.9366 9.02938 8.9366 9.8729 9.4918 9.8729H11.9899C12.182 9.90495 12.342 10.0758 12.342 10.2892C12.342 10.5026 12.1712 10.6734 12.0217 10.6949H10.6339C10.0789 10.6949 10.0789 11.5382 10.6339 11.5382H12.3849C12.8438 11.5808 12.8652 12.371 12.31 12.371H11.9683C11.4134 12.371 11.4134 13.2143 11.9683 13.2143H13.527C14.0823 13.2143 14.0823 14.0576 13.527 14.0576H10.7622C10.2069 14.0576 10.2069 14.9009 10.7622 14.9009H11.8617C12.4167 14.9009 12.4167 15.7444 11.8617 15.7444C11.4775 15.7444 11.9044 15.7444 11.52 15.7444C10.9755 15.7123 10.9755 16.5556 11.5308 16.5556ZM6.71624 9.02938H8.3067C8.86195 9.02938 8.86195 9.8729 8.3067 9.8729H6.71624C6.16099 9.86214 6.16099 9.02938 6.71624 9.02938ZM6.80165 22.4271H7.68755C8.2428 22.4271 8.2428 23.2704 7.68755 23.2704H6.80165C6.2464 23.2704 6.2464 22.4271 6.80165 22.4271Z" fill="white"/>
</g>
<path fill-rule="evenodd" clip-rule="evenodd" d="M6.43873 19.0801H9.03293C9.58796 19.0801 9.58796 19.9234 9.03293 19.9234H6.43873C5.8837 19.9128 5.8837 19.0801 6.43873 19.0801Z" fill="white"/>
<mask id="mask2_1749_193" style="mask-type:luminance" maskUnits="userSpaceOnUse" x="5" y="15" width="6" height="2">
<path d="M5.87305 15.5918H10.2111V16.51H5.87305V15.5918Z" fill="white"/>
</mask>
<g mask="url(#mask2_1749_193)">
<path fill-rule="evenodd" clip-rule="evenodd" d="M10.1967 16.059C10.1967 15.8241 10.0046 15.6426 9.78017 15.6426H6.28954C6.05461 15.6426 5.87305 15.8349 5.87305 16.059C5.87305 16.2938 6.06538 16.4753 6.28954 16.4753H9.76963C10.0046 16.4753 10.1967 16.2938 10.1967 16.059Z" fill="white"/>
</g>
<path fill-rule="evenodd" clip-rule="evenodd" d="M11.2112 12.7796C11.2112 12.5449 11.019 12.3633 10.7948 12.3633H10.3999C10.165 12.3633 9.9834 12.5554 9.9834 12.7796C9.9834 13.0145 10.1757 13.1961 10.3999 13.1961H10.7948C11.019 13.1961 11.2112 13.0145 11.2112 12.7796Z" fill="white"/>
<path fill-rule="evenodd" clip-rule="evenodd" d="M8.9689 17.8169C8.9689 17.5819 8.77679 17.4004 8.55268 17.4004H7.53856C7.30364 17.4004 7.12207 17.5925 7.12207 17.8169C7.12207 18.0516 7.31418 18.2331 7.53856 18.2331H8.55268C8.77679 18.2331 8.9689 18.041 8.9689 17.8169Z" fill="white"/>
<path fill-rule="evenodd" clip-rule="evenodd" d="M9.41812 12.7796C9.41812 12.5449 9.22601 12.3633 9.0019 12.3633H7.98778C7.75286 12.3633 7.57129 12.5554 7.57129 12.7796C7.57129 13.0145 7.76361 13.1961 7.98778 13.1961H9.0019C9.22601 13.1961 9.41812 13.0145 9.41812 12.7796Z" fill="white"/>
</g>
</g>
<defs>
<linearGradient id="paint0_linear_1749_193" x1="2.06817e-07" y1="15.9542" x2="32" y2="15.9542" gradientUnits="userSpaceOnUse">
<stop stop-color="#015EEA"/>
<stop offset="0.77" stop-color="#00C0FA"/>
</linearGradient>
<clipPath id="clip0_1749_193">
<rect width="32" height="32" fill="white"/>
</clipPath>
</defs>
</svg>
